<svg  viewBox="0 0 340 300" fill="none" xmlns="http://www.w3.org/2000/svg">

<!-- <path d="M340 0H0V340H340V0Z" fill="#ffffff"/> -->
<path d="M193.213 248.541L193.489 232.045L182.986 226.031L182.71 242.526C182.696 243.365 183.087 243.989 183.647 244.31L194.15 250.324C193.591 250.004 193.199 249.38 193.213 248.541Z" fill="url(#paint0_linear_0_1)"/>
<path d="M193.213 248.541L193.489 232.045L182.986 226.031L182.71 242.526C182.696 243.365 183.087 243.989 183.647 244.31L194.15 250.324C193.591 250.004 193.199 249.38 193.213 248.541Z" fill="url(#paint1_linear_0_1)"/>
<path d="M193.246 246.58L193.489 232.045L182.986 226.032L182.845 240.625L193.246 246.58Z" fill="url(#paint2_linear_0_1)"/>
<path d="M228.82 206.228L218.317 200.214L183.348 204.351L193.852 210.364L228.82 206.228Z" fill="url(#paint3_linear_0_1)"/>
<path d="M234.054 193.796C234.012 196.314 232.066 198.588 229.708 198.867L218.318 200.215L228.821 206.229L240.211 204.881C242.57 204.602 244.516 202.328 244.558 199.81L234.054 193.796Z" fill="url(#paint4_linear_0_1)"/>
<path d="M245.86 121.912L245.752 128.401L244.558 199.811L234.054 193.799L235.248 122.378L235.356 115.889C235.378 114.283 234.618 112.959 233.446 112.287L243.95 118.298C245.122 118.971 245.881 120.295 245.86 121.912Z" fill="url(#paint5_linear_0_1)"/>
<path d="M245.86 121.912L245.646 134.638L235.248 128.676L235.356 115.89C235.378 114.284 234.618 112.96 233.446 112.288L243.95 118.299C245.122 118.971 245.881 120.295 245.86 121.912Z" fill="url(#paint6_linear_0_1)"/>
<path d="M183.348 204.351L174.352 205.415L171.309 205.775L97.417 214.516C96.58 214.615 95.803 214.446 95.151 214.073L105.654 220.087C106.306 220.46 107.083 220.63 107.92 220.531L181.812 211.79L184.854 211.43L193.851 210.366L183.348 204.351Z" fill="url(#paint7_linear_0_1)"/>
<path d="M244.637 92.717C240.874 90.562 236.376 89.5881 231.524 90.1621L99.234 105.812L109.737 111.825L242.027 96.1751C246.878 95.6011 251.376 96.576 255.14 98.73L244.637 92.717Z" fill="url(#paint8_linear_0_1)"/>
<path d="M83.507 218.861L84.809 140.959C85.051 126.464 96.208 113.426 109.738 111.825L99.235 105.812C85.706 107.412 74.549 120.451 74.306 134.946L73.004 212.849C72.848 222.152 77.227 229.791 83.961 233.647L94.464 239.661C87.73 235.804 83.351 228.165 83.507 218.861Z" fill="url(#paint9_linear_0_1)"/>
<path d="M209.963 174.86C215.394 174.86 219.796 170.458 219.796 165.027C219.796 159.596 215.394 155.194 209.963 155.194C204.532 155.194 200.13 159.596 200.13 165.027C200.13 170.458 204.532 174.86 209.963 174.86Z" fill="url(#paint10_radial_0_1)"/>
<path d="M174.171 178.761C179.602 178.761 184.004 174.359 184.004 168.928C184.004 163.497 179.602 159.095 174.171 159.095C168.74 159.095 164.338 163.497 164.338 168.928C164.338 174.359 168.74 178.761 174.171 178.761Z" fill="url(#paint11_radial_0_1)"/>
<path d="M138.38 182.597C143.811 182.597 148.213 178.195 148.213 172.764C148.213 167.333 143.811 162.931 138.38 162.931C132.949 162.931 128.547 167.333 128.547 172.764C128.547 178.195 132.949 182.597 138.38 182.597Z" fill="url(#paint12_radial_0_1)"/>
<path d="M186.866 187.234C186.521 187.037 186.139 186.972 185.762 187.017C184.672 187.146 183.619 188.181 183.596 189.536L183.348 204.35L193.851 210.364L194.098 195.55C194.121 194.195 195.174 193.16 196.264 193.031C196.642 192.986 197.023 193.051 197.368 193.248L186.866 187.234Z" fill="url(#paint13_linear_0_1)"/>
<path d="M242.027 96.175L109.737 111.825C96.207 113.426 85.051 126.464 84.808 140.959L83.506 218.862C83.264 233.356 94.028 243.812 107.558 242.211L181.45 233.47L184.493 233.11L193.489 232.046L193.851 210.365L184.854 211.429L181.811 211.789L107.919 220.53C105.578 220.807 103.701 218.985 103.743 216.468L105.045 138.566C105.087 136.058 107.033 133.784 109.374 133.507L241.664 117.857C244.023 117.578 245.9 119.4 245.858 121.908L244.556 199.811C244.514 202.329 242.568 204.603 240.21 204.882L228.82 206.229L193.852 210.366L193.49 232.047L230.274 227.696L239.849 226.563C253.379 224.962 264.553 211.912 264.795 197.417L266.097 119.514C266.338 105.018 255.557 94.575 242.027 96.175Z" fill="url(#paint14_linear_0_1)"/>
<path d="M220.742 209.59L218.315 207.588L196.435 210.176L196.397 212.47L196.073 231.857L224.321 228.042C224.321 228.042 226.168 226.524 229.561 223.028C231.346 221.189 231.189 218.213 229.212 216.582L220.742 209.59Z" fill="url(#paint15_linear_0_1)"/>
<path d="M193.489 232.045L193.213 248.541C193.19 249.891 194.216 250.683 195.307 250.554C195.78 250.498 196.265 250.269 196.683 249.837L216.55 229.317L225.606 219.967C226.594 218.96 226.621 217.344 225.663 216.557L215.115 207.849L197.626 193.427C197.22 193.091 196.739 192.976 196.265 193.032C195.175 193.161 194.122 194.196 194.099 195.551L193.852 210.365L193.489 232.045Z" fill="url(#paint16_linear_0_1)"/>
<path d="M249.592 109.216C249.408 108.771 249.418 108.305 249.451 107.816L249.592 109.216Z" fill="url(#paint17_linear_0_1)"/>
<defs>
<linearGradient id="paint0_linear_0_1" x1="182.052" y1="249.809" x2="191.554" y2="232.849" gradientUnits="userSpaceOnUse">
<stop stop-color="#FB5507"/>
<stop offset="0.3066" stop-color="#FE9C0A"/>
<stop offset="1" stop-color="#FF006C"/>
</linearGradient>
<linearGradient id="paint1_linear_0_1" x1="180.848" y1="251.957" x2="190.35" y2="234.998" gradientUnits="userSpaceOnUse">
<stop stop-color="#FB5507"/>
<stop offset="0.3066" stop-color="#FE9C0A"/>
<stop offset="1" stop-color="#FF006C"/>
</linearGradient>
<linearGradient id="paint2_linear_0_1" x1="186.097" y1="242.076" x2="188.074" y2="236.427" gradientUnits="userSpaceOnUse">
<stop stop-color="white"/>
<stop offset="1" stop-color="#A0A7B5"/>
</linearGradient>
<linearGradient id="paint3_linear_0_1" x1="221.85" y1="176.608" x2="187.932" y2="238.311" gradientUnits="userSpaceOnUse">
<stop stop-color="#1D4DDA"/>
<stop offset="0.3032" stop-color="#3887FE"/>
<stop offset="1" stop-color="#5100BD"/>
</linearGradient>
<linearGradient id="paint4_linear_0_1" x1="239.354" y1="186.23" x2="205.435" y2="247.934" gradientUnits="userSpaceOnUse">
<stop stop-color="#1D4DDA"/>
<stop offset="0.3032" stop-color="#3887FE"/>
<stop offset="1" stop-color="#5100BD"/>
</linearGradient>
<linearGradient id="paint5_linear_0_1" x1="239.653" y1="90.9383" x2="239.653" y2="325.677" gradientUnits="userSpaceOnUse">
<stop stop-color="#1D4DDA"/>
<stop offset="0.3032" stop-color="#3887FE"/>
<stop offset="1" stop-color="#5100BD"/>
</linearGradient>
<linearGradient id="paint6_linear_0_1" x1="237.735" y1="128.277" x2="240.385" y2="121.232" gradientUnits="userSpaceOnUse">
<stop stop-color="white"/>
<stop offset="1" stop-color="#A0A7B5"/>
</linearGradient>
<linearGradient id="paint7_linear_0_1" x1="203.729" y1="183.629" x2="83.7504" y2="241.544" gradientUnits="userSpaceOnUse">
<stop stop-color="#1D4DDA"/>
<stop offset="0.3032" stop-color="#3887FE"/>
<stop offset="1" stop-color="#5100BD"/>
</linearGradient>
<linearGradient id="paint8_linear_0_1" x1="54.8084" y1="106.198" x2="320.866" y2="94.1703" gradientUnits="userSpaceOnUse">
<stop stop-color="#1D4DDA"/>
<stop offset="0.3032" stop-color="#3887FE"/>
<stop offset="1" stop-color="#5100BD"/>
</linearGradient>
<linearGradient id="paint9_linear_0_1" x1="76.5957" y1="75.6792" x2="103.659" y2="236.974" gradientUnits="userSpaceOnUse">
<stop stop-color="#1D4DDA"/>
<stop offset="0.3032" stop-color="#3887FE"/>
<stop offset="1" stop-color="#5100BD"/>
</linearGradient>
<radialGradient id="paint10_radial_0_1" cx="0" cy="0" r="1" gradientUnits="userSpaceOnUse" gradientTransform="translate(207.587 162.324) scale(11.6212 11.6212)">
<stop stop-color="#FFBF0B"/>
<stop offset="1" stop-color="#FB5507"/>
</radialGradient>
<radialGradient id="paint11_radial_0_1" cx="0" cy="0" r="1" gradientUnits="userSpaceOnUse" gradientTransform="translate(171.796 166.225) scale(11.6213 11.6213)">
<stop stop-color="#FFBF0B"/>
<stop offset="1" stop-color="#FB5507"/>
</radialGradient>
<radialGradient id="paint12_radial_0_1" cx="0" cy="0" r="1" gradientUnits="userSpaceOnUse" gradientTransform="translate(136.004 170.061) scale(11.6213)">
<stop stop-color="#FFBF0B"/>
<stop offset="1" stop-color="#FB5507"/>
</radialGradient>
<linearGradient id="paint13_linear_0_1" x1="185.789" y1="204.612" x2="206.025" y2="170.171" gradientUnits="userSpaceOnUse">
<stop stop-color="#FF5507"/>
<stop offset="0.3066" stop-color="#FE9C0A"/>
<stop offset="1" stop-color="#FF006C"/>
</linearGradient>
<linearGradient id="paint14_linear_0_1" x1="112.168" y1="111.826" x2="279.597" y2="265.182" gradientUnits="userSpaceOnUse">
<stop stop-color="#1D4DDA"/>
<stop offset="0.3032" stop-color="#3887FE"/>
<stop offset="1" stop-color="#5100BD"/>
</linearGradient>
<linearGradient id="paint15_linear_0_1" x1="225.908" y1="231.701" x2="218.144" y2="226.732" gradientUnits="userSpaceOnUse">
<stop stop-color="white"/>
<stop offset="1" stop-color="#A0A7B5"/>
</linearGradient>
<linearGradient id="paint16_linear_0_1" x1="166.95" y1="194.77" x2="210.611" y2="234.101" gradientUnits="userSpaceOnUse">
<stop stop-color="#FE9C0A"/>
<stop offset="0.3023" stop-color="#FFBF0B"/>
<stop offset="1" stop-color="#FB5507"/>
</linearGradient>
<linearGradient id="paint17_linear_0_1" x1="249.432" y1="108.516" x2="249.592" y2="108.516" gradientUnits="userSpaceOnUse">
<stop stop-color="#1D4DDA"/>
<stop offset="0.3032" stop-color="#3887FE"/>
<stop offset="1" stop-color="#5100BD"/>
</linearGradient>
</defs>
</svg>
